PathFileType	4	(X/Y/Z)	Kaydara	
DataRate	CameraRate	NumFrames	NumMarkers	Units	OrigDataRate	OrigDataStartFrame	OrigNumFrames	
60.00	60.00	4	74	mm	60.00	1070	111	
Frame#	Time	Y_rasi			Y_rpsi			Y_lpsi			Y_fneck			Y_bneck			Y_fhead			Y_rhead			Y_rshld			Y_relbtop			Y_relbext			Y_relblow			Y_rwrext			Y_rwrtop			Y_rwrlow			Y_lshld			Y_lelbext			Y_lelblow			Y_lelbtop			Y_lwrext			Y_lwrtop			Y_lwrlow			Y_rtopleg			Y_ltopleg			Y_rkneefr			Y_rkneebk			Y_rkneeis			Y_lkneefr			Y_lknssbk			Y_lkneeis			Y_rankfr			Y_rankis			Y_rankbk			Y_lankfr			Y_lankbk			Y_lankis			Y_lhead			Y_lasi			D_rpsi			D_lpsi			D_fneck			D_bneck			D_fhead			D_rhead			D_lhead			D_rshld			D_relbtop			D_relbext			D_relblow			D_rwrext			D_rwrtop			D_rwrlow			D_lshld			D_lelbext			D_lelblow			D_lelbtop			D_lwrext			D_lwrtop			D_lwrlow			D_rtopleg			D_ltopleg			D_rkneefr			D_rkneebk			D_rkneeis			D_lkneefr			D_lknssbk			D_lkneeis			D_rankfr			D_rankis			D_rankbk			D_lankfr			D_lankbk			D_lankis			D_lasi			D_rasi			
		X1	Y1	Z1	X2	Y2	Z2	X3	Y3	Z3	X4	Y4	Z4	X5	Y5	Z5	X6	Y6	Z6	X7	Y7	Z7	X8	Y8	Z8	X9	Y9	Z9	X10	Y10	Z10	X11	Y11	Z11	X12	Y12	Z12	X13	Y13	Z13	X14	Y14	Z14	X15	Y15	Z15	X16	Y16	Z16	X17	Y17	Z17	X18	Y18	Z18	X19	Y19	Z19	X20	Y20	Z20	X21	Y21	Z21	X22	Y22	Z22	X23	Y23	Z23	X24	Y24	Z24	X25	Y25	Z25	X26	Y26	Z26	X27	Y27	Z27	X28	Y28	Z28	X29	Y29	Z29	X30	Y30	Z30	X31	Y31	Z31	X32	Y32	Z32	X33	Y33	Z33	X34	Y34	Z34	X35	Y35	Z35	X36	Y36	Z36	X37	Y37	Z37	X38	Y38	Z38	X39	Y39	Z39	X40	Y40	Z40	X41	Y41	Z41	X42	Y42	Z42	X43	Y43	Z43	X44	Y44	Z44	X45	Y45	Z45	X46	Y46	Z46	X47	Y47	Z47	X48	Y48	Z48	X49	Y49	Z49	X50	Y50	Z50	X51	Y51	Z51	X52	Y52	Z52	X53	Y53	Z53	X54	Y54	Z54	X55	Y55	Z55	X56	Y56	Z56	X57	Y57	Z57	X58	Y58	Z58	X59	Y59	Z59	X60	Y60	Z60	X61	Y61	Z61	X62	Y62	Z62	X63	Y63	Z63	X64	Y64	Z64	X65	Y65	Z65	X66	Y66	Z66	X67	Y67	Z67	X68	Y68	Z68	X69	Y69	Z69	X70	Y70	Z70	X71	Y71	Z71	X72	Y72	Z72	X73	Y73	Z73	X74	Y74	Z74	

70	17.817	-538.54637	1093.12759	-147.36052	-533.27171	1075.04868	-330.84381	-306.18061	1060.17166	-260.86777	-449.36756	1432.84805	-167.47320	-365.36373	1484.96536	-242.63426	-518.13164	1627.55035	-117.74621	-467.60803	1562.81662	-276.80664	-581.75407	1434.36340	-303.89639	-626.38802	1143.50327	-373.43533	-613.88111	1154.84238	-431.76216	-552.84149	1122.46056	-418.80058	-749.52042	953.97652	-296.11301	-778.55515	985.10521	-301.73153	-769.86038	1015.05325	-269.95235	-226.50911	1392.70386	-113.42902	-143.70992	1087.73071	-195.10103	-199.92903	1072.35229	-209.79656	-180.08434	1107.64282	-143.91523	-239.65630	901.62102	-21.06373	-206.80401	916.33713	6.09107	-229.25251	953.16452	25.03900	-609.07764	918.01315	-290.66711	-274.00064	905.90805	-150.63106	-633.03810	414.14635	-283.56375	-608.96076	456.35582	-358.72116	-537.00848	419.05453	-272.41648	-326.95988	475.59135	-123.36530	-262.04184	493.66035	-216.78745	-382.70561	469.59297	-202.29374	-630.37071	143.30510	-331.69411	-559.73900	133.46712	-342.40578	-599.60247	136.60509	-397.21561	-273.75193	130.75267	-172.54984	-255.80147	128.28407	-239.37138	-328.80264	125.59469	-208.75164	-354.83307	1578.21182	-173.96954	-384.90730	1075.09300	-99.83679	-972.21176	1171.23268	583.23051	-1111.76918	1183.49258	475.91808	-948.11409	1602.59247	447.02263	-1043.51608	1652.99896	513.75481	-901.66832	1796.58051	344.60823	-964.16428	1794.14764	511.97960	-1067.84569	1787.52563	399.13540	-852.31689	1559.56894	577.23511	-827.13760	1187.60757	532.47536	-777.45926	1196.98387	578.79986	-847.15233	1179.64500	614.78230	-746.82205	906.29463	516.80725	-716.93321	919.83795	489.86794	-742.34970	931.57547	449.82552	-1184.07669	1561.26984	385.64705	-1177.32239	1189.13246	324.43508	-1168.97560	1168.77380	399.30840	-1113.67905	1195.56908	339.98379	-1120.49545	938.96843	294.03194	-1091.20628	959.10530	261.86779	-1055.12833	963.24310	291.52863	-857.15355	1033.59779	575.11040	-1135.90126	1031.44165	354.53346	-795.28221	556.90083	428.09837	-812.82051	557.73399	541.51154	-907.31186	539.38465	464.17683	-1032.91550	471.36368	379.78695	-1125.85045	516.99757	426.50700	-1039.84314	503.59570	493.54763	-827.77092	191.43761	533.66486	-903.52257	187.49973	517.89734	-878.21884	193.22712	601.13701	-1064.95033	161.02184	411.83361	-1084.75975	151.40841	488.96378	-1001.90300	167.02341	448.10207	-1025.42435	1190.90927	340.54253	-858.34717	1181.97281	456.24165 
71	17.833	-538.39458	1092.99637	-148.03834	-532.68356	1075.06508	-331.59847	-305.74957	1060.20294	-260.96828	-449.53178	1432.40021	-167.18384	-365.52258	1485.08331	-242.06755	-519.21085	1626.89255	-117.87248	-467.56325	1562.58484	-276.68261	-581.54984	1434.75037	-303.76522	-628.69850	1144.52370	-373.82793	-615.99949	1155.94231	-432.22820	-555.22266	1122.79434	-419.37904	-754.26346	956.93840	-296.87901	-782.30804	989.11293	-301.19656	-771.82022	1017.88017	-268.68109	-226.85818	1393.42285	-112.88033	-140.41994	1088.96370	-192.67431	-196.45718	1072.95708	-207.91336	-177.95696	1109.38263	-141.80235	-236.67902	904.25056	-17.35539	-205.90038	921.12389	10.80521	-231.42582	957.76947	28.61520	-608.66337	918.07930	-291.56008	-273.91119	905.90157	-150.65842	-633.05965	414.15604	-283.62797	-608.90327	456.28551	-358.79585	-537.06112	419.00993	-272.41922	-326.87450	475.50175	-123.45360	-261.91967	493.64281	-216.78179	-382.58850	469.60506	-202.43973	-630.34874	143.25713	-331.68655	-559.74594	133.47649	-342.42977	-599.59358	136.61141	-397.21901	-273.75372	130.75544	-172.54509	-255.74945	128.27642	-239.37735	-329.25976	125.89393	-209.24908	-355.91900	1578.44116	-172.42142	-384.97547	1074.92157	-100.17833	-975.09842	1171.03966	583.54782	-1113.97392	1183.16971	474.39625	-950.20653	1602.47940	447.01710	-1046.31348	1653.03513	512.68925	-902.77496	1794.94598	343.08044	-965.26047	1794.76639	510.37724	-1068.91632	1787.74567	397.66933	-855.97237	1559.84650	578.54450	-834.66415	1188.44109	528.41763	-784.23767	1196.41777	574.00600	-853.42567	1179.66370	611.10676	-759.43420	906.62758	506.89217	-730.76775	919.83154	478.25226	-758.58765	932.00912	440.01999	-1184.67346	1561.18454	382.70996	-1176.80809	1190.32669	318.09704	-1170.96291	1167.52235	392.71030	-1115.41641	1196.17409	334.89502	-1116.61400	940.56801	289.53459	-1086.63322	960.50255	258.70035	-1051.66977	964.33861	289.60093	-859.76570	1033.32542	576.57524	-1135.36690	1030.23079	352.76684	-791.04614	557.69127	425.09918	-809.70787	558.34003	538.18409	-903.19885	539.76524	460.13176	-1032.82280	471.78131	380.31433	-1126.56509	516.98528	425.73975	-1041.39359	503.67249	493.75263	-826.47354	192.28369	532.62863	-902.16660	188.72982	516.07510	-877.67525	195.37580	598.63056	-1064.94362	160.99850	411.54339	-1085.16785	151.35899	488.54752	-1002.21313	167.12458	448.35888	-1025.42023	1190.78773	340.10258	-860.06081	1182.04773	458.09574 
72	17.850	-538.35983	1092.93533	-148.83553	-532.10487	1075.08141	-332.28550	-305.39221	1060.28725	-260.94021	-450.18085	1431.96915	-166.84845	-365.58052	1485.14297	-241.52246	-520.12306	1626.42471	-117.67435	-467.53017	1562.41089	-276.54636	-581.37970	1435.08087	-303.63262	-630.43919	1145.38643	-374.02756	-617.92820	1156.77193	-432.40250	-557.39090	1123.13332	-419.99691	-757.82532	958.87184	-297.72247	-785.08537	992.07001	-300.41975	-772.46048	1019.20296	-267.32485	-227.22208	1393.93158	-112.38162	-137.27741	1090.19302	-190.28816	-193.11266	1073.65364	-206.39767	-176.04801	1110.85419	-140.00211	-234.30592	906.30440	-14.80648	-205.47235	925.27725	14.11747	-234.30115	960.45082	27.94902	-608.39195	918.07686	-292.16034	-273.76505	905.90584	-150.71311	-633.17875	414.16519	-283.61526	-608.93566	456.21635	-358.79307	-537.17487	418.92349	-272.33355	-326.92623	475.58979	-123.56756	-261.82608	493.65318	-216.76697	-382.50713	469.61460	-202.54162	-630.54600	143.34183	-331.56601	-559.83818	133.44093	-342.38285	-599.60003	136.60804	-397.21752	-273.74754	130.73720	-172.50130	-255.71812	128.22988	-239.36224	-329.20837	125.88939	-209.21459	-356.35841	1578.35358	-171.85957	-385.07847	1074.84894	-100.27307	-977.66235	1171.14670	584.02252	-1115.18677	1182.82738	473.09494	-952.51968	1602.15454	446.76010	-1048.91090	1653.09830	511.67141	-903.88771	1793.36151	341.68129	-966.60797	1795.08011	508.94665	-1070.21355	1787.99606	396.19816	-859.34792	1560.05783	579.54193	-841.74721	1189.30283	524.09225	-791.10947	1195.96603	569.52225	-858.84895	1179.55856	608.39535	-767.71545	907.25426	499.04358	-744.15009	921.15089	466.00033	-775.78255	932.38174	430.28164	-1185.55489	1561.12625	380.42965	-1177.63084	1189.93805	312.09505	-1173.20244	1167.80334	386.75362	-1117.91779	1196.20712	328.25993	-1113.50098	941.91330	284.09336	-1082.18170	961.91727	255.72418	-1049.34486	965.10086	288.74474	-862.52914	1033.39859	578.66829	-1133.86406	1028.88336	351.07590	-786.59782	558.93715	422.32540	-806.66000	559.17442	535.41645	-898.99513	540.44926	456.34476	-1032.73109	472.07237	381.04988	-1127.34848	516.82362	425.47409	-1042.84149	503.62473	494.36169	-825.01167	193.41852	531.77746	-900.44983	190.25438	514.24393	-877.01500	197.12973	597.21359	-1064.73114	160.92157	411.34476	-1085.60829	150.80138	488.16788	-1002.34108	167.13024	448.64140	-1025.49446	1190.61401	339.94152	-861.18462	1182.42622	459.73080 
73	17.867	-538.34381	1092.87376	-149.51686	-531.45378	1075.08713	-332.99500	-305.10380	1060.31845	-260.74594	-449.99306	1432.04559	-166.70877	-365.77789	1485.24933	-241.08273	-521.15253	1625.88928	-117.68501	-467.49245	1562.29218	-276.36759	-581.35792	1435.33035	-303.49463	-631.83846	1145.77431	-373.98384	-619.49505	1157.52243	-432.39998	-559.09706	1123.46970	-420.32028	-760.25566	959.62090	-298.64147	-786.65367	993.59970	-299.63949	-772.18346	1019.43649	-265.38076	-227.54595	1394.30115	-111.94196	-134.42273	1091.34872	-188.34095	-189.88647	1074.33777	-205.49831	-174.82468	1111.70975	-138.66014	-232.38621	907.49542	-13.70158	-206.31935	928.29712	16.25415	-237.03007	962.15813	28.13992	-607.98512	918.02963	-292.95914	-273.60062	905.90446	-150.77072	-633.32481	414.13551	-283.48246	-609.01264	456.13617	-358.71971	-537.38983	418.86311	-272.12976	-327.02145	475.41832	-123.51147	-261.75354	493.63243	-216.75793	-382.47646	469.60697	-202.59871	-630.36293	143.20569	-331.59142	-559.83894	133.44889	-342.38174	-599.61040	136.60411	-397.20650	-273.74268	130.74327	-172.48005	-255.67347	128.24160	-239.35978	-329.15699	125.86680	-209.22626	-356.85619	1578.29742	-171.05639	-385.24605	1074.73618	-100.64067	-980.89081	1171.34743	584.55513	-1117.91214	1182.61459	472.58907	-954.82178	1601.65863	446.04912	-1051.30112	1653.09311	510.57465	-905.07019	1791.97815	340.25265	-967.83569	1795.22507	507.61997	-1071.29539	1788.43719	395.18570	-862.40952	1560.08072	579.86042	-847.98622	1189.37820	520.62572	-796.64673	1195.21629	564.24915	-862.71477	1179.57108	607.75532	-771.72073	908.52753	489.43157	-752.90329	924.84871	453.42842	-789.63402	934.51309	423.55778	-1186.73477	1560.76385	377.91759	-1179.02306	1189.09691	306.89281	-1173.54469	1167.28783	381.42849	-1119.10721	1197.03720	321.92810	-1110.92445	943.26553	278.76709	-1079.26254	963.33763	251.84093	-1047.72781	965.63576	286.50829	-864.95979	1033.77403	580.18757	-1134.09630	1028.04520	350.50339	-782.22473	560.84511	419.97993	-803.52554	560.48912	533.03150	-894.76494	541.40678	453.24039	-1033.27698	471.69605	381.69281	-1128.18344	516.45348	425.68062	-1043.59901	503.67619	494.54033	-823.30833	194.74663	530.75653	-898.60725	191.95766	512.31026	-875.87608	199.25318	595.78999	-1064.05151	160.64526	413.15304	-1085.46890	150.47592	488.72452	-1002.42874	167.11000	448.89080	-1025.55710	1190.23460	339.98817	-862.38342	1182.89322	461.29761 
